<?xml version="1.0" standalone="no"?>
<!DOCTYPE svg PUBLIC "-//W3C//DTD SVG 20010904//EN"
 "http://www.w3.org/TR/2001/REC-SVG-20010904/DTD/svg10.dtd">
<svg version="1.0" xmlns="http://www.w3.org/2000/svg"
 width="399.000000pt" height="399.000000pt" viewBox="0 0 399.000000 399.000000"
 preserveAspectRatio="xMidYMid meet">

<g transform="translate(0.000000,399.000000) scale(0.100000,-0.100000)"
fill="#000000" stroke="none">
<path d="M1726 3539 c-148 -13 -227 -36 -359 -103 -138 -70 -260 -148 -282
-179 -13 -18 -12 -23 6 -48 l20 -28 -78 -40 c-144 -72 -299 -196 -394 -314
-22 -27 -36 -53 -33 -59 4 -6 26 -19 50 -30 24 -10 44 -23 44 -27 0 -5 -40
-45 -90 -91 -109 -100 -204 -214 -196 -235 6 -16 19 -19 84 -15 25 1 42 -3 42
-9 0 -6 -20 -78 -44 -159 -97 -326 -133 -611 -81 -648 22 -16 76 -18 125 -4
19 5 38 6 43 1 4 -4 3 -47 -3 -94 -15 -109 -1 -189 36 -214 32 -20 113 -13
177 16 55 25 54 25 61 3 8 -26 -5 136 -15 192 l-9 48 86 97 c47 53 123 148
169 212 108 149 125 162 76 58 -52 -110 -55 -123 -36 -143 21 -21 50 -20 100
3 69 31 146 103 349 325 169 186 216 232 216 212 0 -2 -11 -84 -25 -182 -15
-98 -25 -191 -23 -207 5 -48 30 -56 82 -28 61 32 233 189 335 305 l84 96 40
-96 c21 -52 36 -98 33 -101 -3 -4 -48 -9 -98 -13 l-93 -6 37 -17 c44 -20 116
-22 153 -5 22 10 28 9 36 -3 4 -9 17 -27 28 -40 18 -22 21 -23 36 -8 9 9 21
44 28 77 6 34 14 62 18 62 4 0 9 -17 13 -37 9 -52 44 -126 56 -118 5 3 10 23
10 43 0 34 3 30 33 -43 41 -101 98 -203 136 -244 25 -27 33 -30 50 -22 31 17
70 163 72 270 1 42 2 43 9 16 4 -16 13 -90 20 -164 20 -222 49 -265 86 -126
l22 80 -6 -102 c-3 -57 -3 -103 -1 -103 2 1 26 7 53 14 205 54 295 -182 110
-290 -36 -21 -58 -27 -105 -26 l-59 0 -40 -76 c-44 -86 -168 -227 -252 -288
-28 -21 -46 -40 -39 -42 6 -2 27 -28 46 -58 35 -54 35 -54 63 -40 37 20 72 59
122 139 23 37 46 65 50 62 5 -3 11 -19 15 -35 4 -19 13 -30 24 -30 27 0 104
86 183 205 40 60 78 108 83 108 6 -1 12 -10 13 -20 7 -34 21 -37 48 -12 48 45
111 196 134 324 7 39 14 73 17 77 2 4 17 2 34 -4 77 -27 104 31 96 212 -7 183
-68 396 -137 480 -12 15 -34 82 -54 162 -89 353 -222 540 -396 555 -40 4 -60
10 -60 19 0 7 -8 19 -18 26 -12 9 -19 29 -21 63 -3 63 -32 113 -108 188 -73
72 -114 99 -221 149 -259 119 -493 156 -816 127z m1331 -610 c124 -60 233
-258 298 -540 20 -89 33 -123 57 -153 85 -106 152 -403 130 -570 -13 -98 -24
-111 -78 -94 l-39 13 -6 155 c-7 173 -32 281 -103 437 -20 46 -45 125 -57 184
-42 211 -94 333 -214 499 -69 97 -67 108 12 69z m-1297 -84 c33 -32 56 -92 66
-178 8 -69 21 -75 110 -54 55 13 114 31 404 122 129 41 172 45 201 19 25 -22
25 -69 -1 -92 -11 -9 -82 -36 -158 -60 -75 -23 -173 -54 -217 -69 -235 -75
-332 -86 -403 -43 -47 29 -63 61 -73 147 -13 109 -11 106 -65 98 -111 -16
-293 -96 -559 -244 -167 -93 -209 -100 -240 -41 -22 42 -7 72 52 100 26 12
120 61 208 109 88 48 176 95 195 103 263 119 415 146 480 83z m1045 -45 c3
-11 13 -20 22 -20 14 0 14 3 -2 20 -22 24 -9 27 17 3 23 -21 23 -49 -2 -70
-22 -19 -50 -26 -50 -12 0 5 -6 9 -14 9 -12 0 -25 28 -26 52 0 9 30 38 40 38
5 0 12 -9 15 -20z m-2191 -441 c26 -20 27 -26 24 -83 -3 -33 -21 -122 -40
-196 -22 -83 -41 -181 -47 -255 -7 -66 -14 -137 -16 -157 l-5 -38 47 0 c34 0
53 -6 70 -22 21 -20 23 -30 23 -117 0 -53 5 -121 10 -151 17 -96 17 -95 -11
-98 -14 -2 -36 6 -50 17 -24 19 -24 22 -22 165 2 166 8 156 -86 134 -72 -16
-97 -3 -103 54 -6 61 9 215 32 322 29 139 123 446 136 446 6 0 24 -10 38 -21z
m2430 -1188 c-7 -60 -36 -146 -77 -225 l-25 -49 -12 37 c-6 20 -15 36 -19 36
-12 0 -35 -29 -65 -82 -30 -52 -107 -138 -123 -138 -6 0 -26 23 -43 52 l-32
52 28 19 c68 46 211 209 252 285 l41 78 41 -4 41 -4 -7 -57z"/>
<path d="M2760 2775 c0 -8 4 -15 10 -15 5 0 7 7 4 15 -4 8 -8 15 -10 15 -2 0
-4 -7 -4 -15z"/>
<path d="M2790 2750 c0 -5 7 -7 15 -4 8 4 15 8 15 10 0 2 -7 4 -15 4 -8 0 -15
-4 -15 -10z"/>
<path d="M800 3284 c0 -15 54 -155 61 -160 5 -3 9 13 9 35 0 38 2 41 29 41 31
0 44 12 60 52 16 42 -7 46 -24 5 -12 -29 -20 -35 -51 -39 -33 -4 -37 -2 -51
34 -13 32 -33 52 -33 32z"/>
<path d="M710 3211 c0 -11 80 -51 103 -51 31 0 17 15 -36 38 -57 24 -67 26
-67 13z"/>
<path d="M660 3206 c0 -2 7 -16 15 -32 13 -25 13 -30 0 -44 -8 -9 -15 -21 -15
-26 0 -5 -10 -10 -22 -11 -25 -2 -58 -36 -58 -59 0 -23 20 -16 32 11 23 50 54
25 74 -57 3 -16 11 -28 16 -28 13 0 2 64 -17 101 -12 22 -12 30 -1 44 11 16
14 14 34 -19 12 -20 26 -36 32 -36 14 0 13 5 -10 42 -11 18 -20 39 -20 46 0
20 39 -5 52 -34 13 -27 28 -32 28 -8 0 22 -55 74 -79 74 -11 0 -22 9 -26 20
-5 16 -35 30 -35 16z"/>
<path d="M547 3104 c-12 -13 3 -21 28 -17 13 3 22 9 19 14 -6 10 -38 12 -47 3z"/>
<path d="M530 2996 c-17 -19 -30 -24 -54 -20 -34 5 -35 7 28 -39 18 -13 18
-16 4 -36 -33 -46 1 -88 63 -79 31 4 38 51 13 79 -19 21 -13 26 40 31 16 2 32
9 34 17 5 14 -1 14 -100 -6 -34 -7 -38 15 -8 42 21 19 26 35 12 35 -5 0 -19
-11 -32 -24z m47 -140 c-8 -20 -46 -21 -53 -2 -3 8 0 24 6 36 l12 22 20 -20
c12 -12 18 -27 15 -36z"/>
<path d="M270 2862 c0 -4 30 -41 68 -82 37 -42 81 -93 99 -113 35 -40 43 -44
43 -24 0 7 -18 30 -40 52 -42 41 -40 55 8 55 28 0 102 37 102 50 0 13 4 14
-65 -15 -87 -36 -99 -34 -91 14 3 22 9 46 12 55 3 9 1 16 -5 16 -6 0 -14 -18
-17 -40 -4 -22 -10 -42 -14 -45 -3 -2 -23 16 -44 40 -34 42 -56 56 -56 37z"/>
<path d="M286 2698 c-9 -12 -16 -28 -16 -35 0 -20 18 -15 30 7 6 11 14 20 19
20 4 0 19 -28 33 -62 14 -34 30 -64 37 -66 7 -2 6 7 -3 30 -7 18 -21 54 -30
81 -20 53 -44 62 -70 25z"/>
<path d="M2290 1724 c-101 -11 -203 -28 -192 -31 7 -3 12 -24 12 -59 0 -30 2
-54 4 -54 2 0 28 -5 57 -11 30 -6 80 -10 112 -9 l58 1 -16 -30 c-16 -33 -30
-39 -39 -18 -2 6 -4 1 -3 -12 4 -48 -79 -67 -127 -30 -30 24 -33 45 -10 70 16
17 15 18 -10 6 -32 -15 -27 -40 16 -81 26 -24 37 -27 71 -23 22 3 52 14 66 24
35 26 111 173 114 220 2 38 2 38 -38 39 -22 1 -56 0 -75 -2z"/>
<path d="M2058 1683 c7 -3 16 -2 19 1 4 3 -2 6 -13 5 -11 0 -14 -3 -6 -6z"/>
<path d="M2008 1673 c6 -2 18 -2 25 0 6 3 1 5 -13 5 -14 0 -19 -2 -12 -5z"/>
<path d="M1958 1663 c6 -2 18 -2 25 0 6 3 1 5 -13 5 -14 0 -19 -2 -12 -5z"/>
<path d="M1455 1644 c-78 -6 -210 -27 -197 -31 8 -3 12 -25 12 -63 0 -50 3
-60 20 -65 24 -8 26 -31 4 -43 -15 -8 -15 -12 -1 -39 21 -40 37 -52 78 -58
l34 -5 -35 11 c-19 5 -43 19 -52 31 -19 21 -25 63 -8 53 6 -3 10 -2 10 4 0 6
14 9 33 6 l32 -5 -32 10 c-40 13 -43 22 -5 14 15 -3 52 -1 84 4 l56 9 -15 -24
c-8 -13 -20 -20 -27 -16 -6 4 -5 -1 3 -10 11 -14 11 -21 -3 -42 -9 -14 -22
-25 -28 -25 -6 0 -8 -3 -5 -7 10 -9 47 27 67 67 21 44 41 120 45 183 3 39 1
47 -13 45 -9 -1 -35 -3 -57 -4z"/>
<path d="M1180 1600 c-20 -6 -21 -8 -5 -8 11 0 31 4 45 8 20 6 21 8 5 8 -11 0
-31 -4 -45 -8z"/>
<path d="M1128 1583 c7 -3 16 -2 19 1 4 3 -2 6 -13 5 -11 0 -14 -3 -6 -6z"/>
<path d="M2188 1543 c7 -3 16 -2 19 1 4 3 -2 6 -13 5 -11 0 -14 -3 -6 -6z"/>
<path d="M2220 1536 c0 -2 11 -6 25 -8 14 -3 25 -1 25 3 0 5 -11 9 -25 9 -14
0 -25 -2 -25 -4z"/>
<path d="M3038 1493 c7 -3 16 -2 19 1 4 3 -2 6 -13 5 -11 0 -14 -3 -6 -6z"/>
<path d="M3088 1474 c31 -22 28 -44 -6 -44 -32 0 -67 -22 -83 -53 -9 -17 -3
-14 23 11 32 30 78 44 78 23 0 -12 -58 -61 -72 -61 -6 0 -9 -3 -5 -6 3 -4 21
3 40 15 32 20 57 57 57 85 0 14 -31 46 -46 46 -4 0 2 -7 14 -16z"/>
<path d="M1706 1391 c-4 -7 -5 -15 -2 -18 9 -9 19 4 14 18 -4 11 -6 11 -12 0z"/>
<path d="M862 1220 c0 -14 2 -19 5 -12 2 6 2 18 0 25 -3 6 -5 1 -5 -13z"/>
<path d="M872 1170 c0 -14 2 -19 5 -12 2 6 2 18 0 25 -3 6 -5 1 -5 -13z"/>
<path d="M881 1114 c0 -11 3 -14 6 -6 3 7 2 16 -1 19 -3 4 -6 -2 -5 -13z"/>
<path d="M1858 1123 c7 -3 16 -2 19 1 4 3 -2 6 -13 5 -11 0 -14 -3 -6 -6z"/>
<path d="M891 1074 c0 -11 3 -14 6 -6 3 7 2 16 -1 19 -3 4 -6 -2 -5 -13z"/>
<path d="M900 1046 c0 -11 40 -86 45 -86 3 0 -4 19 -16 43 -23 45 -29 54 -29
43z"/>
<path d="M959 932 c5 -10 18 -25 27 -33 11 -9 9 -2 -6 19 -26 35 -36 42 -21
14z"/>
<path d="M1045 831 c28 -29 64 -62 80 -73 35 -24 34 -23 -60 62 -65 60 -66 60
-20 11z"/>
<path d="M2520 790 c-30 -16 -66 -39 -80 -50 -14 -12 6 -5 45 16 60 32 110 65
95 64 -3 -1 -30 -14 -60 -30z"/>
<path d="M1175 725 c11 -9 29 -21 40 -26 l20 -10 -20 16 c-11 9 -29 21 -40 26
l-20 10 20 -16z"/>
<path d="M2365 695 c-22 -14 -36 -25 -31 -25 10 0 76 40 76 46 0 6 -2 5 -45
-21z"/>
<path d="M1280 665 c14 -8 30 -14 35 -14 6 0 -1 6 -15 14 -14 8 -29 14 -35 14
-5 0 1 -6 15 -14z"/>
<path d="M2280 655 c-14 -8 -20 -14 -15 -14 6 0 21 6 35 14 14 8 21 14 15 14
-5 0 -21 -6 -35 -14z"/>
<path d="M1370 630 c8 -5 22 -9 30 -9 10 0 8 3 -5 9 -27 12 -43 12 -25 0z"/>
<path d="M2223 633 c-7 -2 -13 -11 -13 -19 0 -22 -151 -175 -188 -191 -59 -25
-92 14 -56 65 9 13 14 25 12 28 -10 10 -109 -25 -173 -61 -120 -67 -220 -183
-327 -381 l-40 -74 581 0 c498 0 581 2 581 14 0 23 -84 245 -118 312 -43 86
-120 167 -194 203 -34 17 -70 31 -81 31 -19 0 -19 1 -2 28 10 15 24 33 33 40
16 12 8 15 -15 5z"/>
<path d="M2170 610 c-8 -5 -10 -10 -5 -10 6 0 17 5 25 10 8 5 11 10 5 10 -5 0
-17 -5 -25 -10z"/>
<path d="M1465 600 c11 -5 27 -9 35 -9 9 0 8 4 -5 9 -11 5 -27 9 -35 9 -9 0
-8 -4 5 -9z"/>
<path d="M1568 573 c6 -2 18 -2 25 0 6 3 1 5 -13 5 -14 0 -19 -2 -12 -5z"/>
<path d="M1623 563 c9 -2 23 -2 30 0 6 3 -1 5 -18 5 -16 0 -22 -2 -12 -5z"/>
<path d="M2038 563 c7 -3 16 -2 19 1 4 3 -2 6 -13 5 -11 0 -14 -3 -6 -6z"/>
<path d="M1825 553 c88 -3 132 -8 137 -16 6 -9 8 -9 8 0 0 6 12 14 28 16 15 2
-47 4 -138 3 -149 0 -152 -1 -35 -3z"/>
</g>
</svg>
